# xmcd
#
# Track frame offsets: 
#        150
#        14505
#        34141
#        51384
#        68000
#        78769
#        95271
#        102513
#        126400
#        145793
#        161961
#        173393
#
# Disc length: 2490 seconds
#
# Revision: 0
# Processed by: cddbd v1.5.2PL0 Copyright (c) Steve Scherf et al.
# Submitted via: ExactAudioCopy v1.0b4
#
DISCID=9c09b80c
DTITLE=Jimmy Walke - Original South Side Blues Piano (LP)
DYEAR=1983
DGENRE=Blues
TTITLE0=Stompin' With Jimmy
TTITLE1=Easy Rider
TTITLE2=Sweet Patootie
TTITLE3=King Bee
TTITLE4=I Had Lots Of Troubles
TTITLE5=Small Town Baby
TTITLE6=Getting Out Of Town
TTITLE7=Come In Here Baby
TTITLE8=Kansas City Baby
TTITLE9=South Side Impressions
TTITLE10=My Baby Left Me This Morning 
TTITLE11=Sweet Home Chicago
EXTD=
EXTT0=
EXTT1=
EXTT2=
EXTT3=
EXTT4=
EXTT5=
EXTT6=
EXTT7=
EXTT8=
EXTT9=
EXTT10=
EXTT11=
PLAYORDER=
